<svg xmlns="http://www.w3.org/2000/svg" version="1.1" xmlns:xlink="http://www.w3.org/1999/xlink" xmlns:svgjs="http://svgjs.com/svgjs" width="1024" height="763" preserveAspectRatio="none" viewBox="0 0 1024 763">
    <g mask="url(&quot;#SvgjsMask3595&quot;)" fill="none">
        <rect width="1024" height="763" x="0" y="0" fill="rgba(85, 19, 39, 1)"></rect>
        <path d="M0 0L78.51 0L0 143.13z" fill="rgba(255, 255, 255, .1)"></path>
        <path d="M0 143.13L78.51 0L119.56 0L0 187.67z" fill="rgba(255, 255, 255, .075)"></path>
        <path d="M0 187.67L119.56 0L247.58 0L0 272.79999999999995z" fill="rgba(255, 255, 255, .05)"></path>
        <path d="M0 272.79999999999995L247.58 0L707.8000000000001 0L0 559.1899999999999z" fill="rgba(255, 255, 255, .025)"></path>
        <path d="M1024 763L870.63 763L1024 491.61z" fill="rgba(0, 0, 0, .1)"></path>
        <path d="M1024 491.61L870.63 763L621.54 763L1024 316.9z" fill="rgba(0, 0, 0, .075)"></path>
        <path d="M1024 316.9L621.54 763L488.13 763L1024 294.14z" fill="rgba(0, 0, 0, .05)"></path>
        <path d="M1024 294.14L488.13 763L440.65999999999997 763L1024 271.13z" fill="rgba(0, 0, 0, .025)"></path>
    </g>
    <defs>
        <mask id="SvgjsMask3595">
            <rect width="1024" height="763" fill="#ffffff"></rect>
        </mask>
    </defs>
</svg>